# xmcd
#
# Track frame offsets:
#	150
#	11492
#	30315
#	40285
#	61682
#	86625
#	102475
#	116465
#	131655
#
# Disc length: 2267 seconds
#
# Revision: 1
# Processed by: cddbd v1.5.2PL0 Copyright (c) Steve Scherf et al.
# Submitted via: EZCDAudioConverter 8.3.3.1
#
DISCID=6908d909
DTITLE=James Montgomery Band - First Time Out
DYEAR=1973
DGENRE=Blues
TTITLE0=Don't Do That
TTITLE1=I'm Funky But I'm Clean
TTITLE2=Ready Teddy
TTITLE3=If You Want Me
TTITLE4=Drive Myself Crazy
TTITLE5=Going Down
TTITLE6=Son Of Jump
TTITLE7=Everybody Knows The Answer
TTITLE8=Train
EXTD=
EXTT0=
EXTT1=
EXTT2=
EXTT3=
EXTT4=
EXTT5=
EXTT6=
EXTT7=
EXTT8=
PLAYORDER=
